<svg width="763" height="134" xmlns="http://www.w3.org/2000/svg" xmlns:xlink="http://www.w3.org/1999/xlink" xml:space="preserve" overflow="hidden"><g transform="translate(-258 -174)"><g><g><g><g><path d="M16.8754 172.746 5.10376 175.429 5.10376 99.1915 16.8754 101.884 16.8754 172.747" fill="#E0F9FD" fill-rule="nonzero" fill-opacity="1" transform="matrix(1.00238 0 0 1 259 103.788)"/><path d="M31.5629 177.243 16.8754 181.418 16.8754 93.3087 31.5629 97.4783 31.5629 177.242" fill="#E0F9FD" fill-rule="nonzero" fill-opacity="1" transform="matrix(1.00238 0 0 1 259 103.788)"/><path d="M50.4053 181.867 31.5629 188.76 31.5629 85.9665 50.4053 92.8569 50.4053 181.868" fill="#E0F9FD" fill-rule="nonzero" fill-opacity="1" transform="matrix(1.00238 0 0 1 259 103.788)"/><g><path d="M100.781 172.974 50.4053 198.164 50.4053 76.5434 100.781 101.732 100.781 172.973" fill="#E0F9FD" fill-rule="nonzero" fill-opacity="1" transform="matrix(1.00238 0 0 1 259 103.788)"/></g><g><path d="M40.3599 81.5653 50.4053 76.5434 50.4053 198.164 40.3599 193.143 40.3599 81.5638" fill="#10374E" fill-rule="nonzero" fill-opacity="1" transform="matrix(1.00238 0 0 1 259 103.788)"/></g><path d="M23.7887 89.8501 31.5629 85.9635 31.5629 188.741 23.7887 184.858 23.7887 89.8509" fill="#10374E" fill-rule="nonzero" fill-opacity="1" transform="matrix(1.00238 0 0 1 259 103.788)"/><path d="M10.683 96.4041 16.8754 93.3079 16.8754 181.397 10.683 178.297 10.683 96.4049" fill="#10374E" fill-rule="nonzero" fill-opacity="1" transform="matrix(1.00238 0 0 1 259 103.788)"/><path d="M5.10376 99.193 0.05275 101.718 0.05275 172.991 5.10376 175.513 5.10376 99.1961" fill="#10374E" fill-rule="nonzero" fill-opacity="1" transform="matrix(1.00238 0 0 1 259 103.788)"/><path d="M6.51348 0 6.51348-78.174 26.1885-78.174 26.1885-55.1108 27.3597-55.1108 43.255-78.174 65.144-78.174 45.6005-46.5118 45.6005-45.0806 64.3612 0 43.7779 0 31.3993-26.1885 29.9651-26.1885 26.1885-19.8034 26.1885 0Z" fill="#10374E" fill-rule="nonzero" fill-opacity="1" transform="matrix(1.00238 0 0 1 377.197 278.842)"/><path d="M6.51348 0 6.51348-78.174 26.1885-78.174 26.1885 0Z" fill="#10374E" fill-rule="nonzero" fill-opacity="1" transform="matrix(1.00238 0 0 1 443.017 278.842)"/><path d="M6.51348 0 6.51348-78.174 19.8034-78.174 45.9919-44.4293 47.0347-44.4293 47.0347-78.174 66.7066-78.174 66.7066 0 53.4167 0 27.2313-33.8762 26.1885-33.8762 26.1885 0Z" fill="#10374E" fill-rule="nonzero" fill-opacity="1" transform="matrix(1.00238 0 0 1 475.796 278.842)"/><path d="M1.82255 0 19.0206-78.174 49.2487-78.174 66.4467 0 47.4261 0 43.6465-17.0665 24.6259-17.0665 20.8462 0ZM28.274-33.3533 40.6496-33.3533 34.7875-57.1963 33.4848-57.1963Z" fill="#10374E" fill-rule="nonzero" fill-opacity="1" transform="matrix(1.00238 0 0 1 549.191 278.842)"/><path d="M6.51348 0 6.51348-78.174 26.1885-78.174 26.1885-47.686 45.6005-47.686 45.6005-78.174 65.2755-78.174 65.2755 0 45.6005 0 45.6005-29.8366 26.1885-29.8366 26.1885 0Z" fill="#10374E" fill-rule="nonzero" fill-opacity="1" transform="matrix(1.00238 0 0 1 641.782 278.842)"/><path d="M6.51348 0 6.51348-78.174 50.9428-78.174 50.9428-61.4958 26.1885-61.4958 26.1885-47.4261 43.515-47.4261 43.515-31.1393 26.1885-31.1393 26.1885-16.6782 50.9428-16.6782 50.9428 0Z" fill="#10374E" fill-rule="nonzero" fill-opacity="1" transform="matrix(1.00238 0 0 1 713.74 278.842)"/><path d="M1.82255 0 19.0206-78.174 49.2487-78.174 66.4467 0 47.4261 0 43.6465-17.0665 24.6259-17.0665 20.8462 0ZM28.274-33.3533 40.6496-33.3533 34.7875-57.1963 33.4848-57.1963Z" fill="#10374E" fill-rule="nonzero" fill-opacity="1" transform="matrix(1.00238 0 0 1 768.72 278.842)"/><path d="M6.51348 0 6.51348-78.174 26.1885-78.174 26.1885-16.6782 50.9428-16.6782 50.9428 0Z" fill="#10374E" fill-rule="nonzero" fill-opacity="1" transform="matrix(1.00238 0 0 1 837.152 278.842)"/><path d="M19.412 0 19.412-61.4958 3.25674-61.4958 3.25674-78.174 55.2423-78.174 55.2423-61.4958 39.087-61.4958 39.087 0Z" fill="#10374E" fill-rule="nonzero" fill-opacity="1" transform="matrix(1.00238 0 0 1 892.132 278.842)"/><path d="M6.51348 0 6.51348-78.174 26.1885-78.174 26.1885-47.686 45.6005-47.686 45.6005-78.174 65.2755-78.174 65.2755 0 45.6005 0 45.6005-29.8366 26.1885-29.8366 26.1885 0Z" fill="#10374E" fill-rule="nonzero" fill-opacity="1" transform="matrix(1.00238 0 0 1 950.769 278.842)"/></g></g></g></g></g></svg>